<svg xmlns="http://www.w3.org/2000/svg" viewBox="0 0 280 64" role="img" aria-labelledby="title">
  <title id="title">CubePlex light monochrome logo</title>
  <g fill="none" stroke-width="4" stroke-linecap="round" stroke-linejoin="round">
    <path d="M32 7 55 20 32 33 9 20 32 7Z" stroke="#FFFFFF"/>
    <path d="m10 32 22 12.5L54 32M10 43.5 32 56l22-12.5" stroke="#FFFFFF"/>
  </g>
  <g fill="#FFFFFF" transform="translate(74 47.3) scale(.045 -.045)">
    <path d="M372 -16Q275 -16 201 28.5Q127 73 85 155.5Q43 238 43 354Q43 468 84 551.5Q125 635 199 680.5Q273 726 373 726Q509 726 584 658.5Q659 591 682 470L546 463Q533 533 490 573Q447 613 373 613Q283 613 230 543Q177 473 177 354Q177 234 230.5 165.5Q284 97 372 97Q451 97 494.5 140.5Q538 184 550 260L686 253Q665 128 585.5 56Q506 -16 372 -16Z"/>
    <path transform="translate(679)" d="M246 -12Q164 -12 117 41Q70 94 70 190V534H198V222Q198 154 220.5 123Q243 92 289 92Q340 92 369 126.5Q398 161 398 227V534H526V0H409L407 87Q365 -12 246 -12Z"/>
    <path transform="translate(1231)" d="M357 -12Q301 -12 259 12Q217 36 195 79L192 0H70V710H198V458Q219 494 260.5 520Q302 546 357 546Q426 546 476.5 511.5Q527 477 554.5 414.5Q582 352 582 267Q582 182 554.5 119.5Q527 57 476.5 22.5Q426 -12 357 -12ZM328 92Q383 92 416 138.5Q449 185 449 267Q449 350 416.5 396Q384 442 329 442Q267 442 232.5 396Q198 350 198 267Q198 185 232.5 138.5Q267 92 328 92Z"/>
    <path transform="translate(1807)" d="M301 -12Q221 -12 162 22.5Q103 57 71 120Q39 183 39 267Q39 351 71 414Q103 477 161.5 511.5Q220 546 298 546Q374 546 431 512Q488 478 519.5 414Q551 350 551 260V231H172Q175 161 210 125.5Q245 90 302 90Q389 90 413 164L544 156Q522 78 457.5 33Q393 -12 301 -12ZM172 317H419Q414 382 381.5 413.5Q349 445 298 445Q246 445 213 412Q180 379 172 317Z"/>
    <path transform="translate(2353)" d="M80 0V710H355Q479 710 549.5 650Q620 590 620 484Q620 377 549.5 316.5Q479 256 355 256H210V0ZM210 369H349Q415 369 450.5 398Q486 427 486 484Q486 540 450.5 568.5Q415 597 349 597H210Z"/>
    <path transform="translate(2972)" d="M198 0Q139 0 104.5 30Q70 60 70 126V710H198V139Q198 99 238 99H277V0Z"/>
    <path transform="translate(3224)" d="M301 -12Q221 -12 162 22.5Q103 57 71 120Q39 183 39 267Q39 351 71 414Q103 477 161.5 511.5Q220 546 298 546Q374 546 431 512Q488 478 519.5 414Q551 350 551 260V231H172Q175 161 210 125.5Q245 90 302 90Q389 90 413 164L544 156Q522 78 457.5 33Q393 -12 301 -12ZM172 317H419Q414 382 381.5 413.5Q349 445 298 445Q246 445 213 412Q180 379 172 317Z"/>
    <path transform="translate(3770)" d="M46 0 238 272 53 534H192L314 352L434 534H575L391 271L582 0H443L316 192L188 0Z"/>
  </g>
</svg>
