<svg xmlns="http://www.w3.org/2000/svg" viewBox="0 0 24 24" fill="none" aria-hidden="true">
  <rect width="24" height="24" rx="5" fill="#0f172a"/>
  <path d="M12 3.5c-4.7 0-8.5 3.8-8.5 8.5 0 3.8 2.4 7 5.8 8.1.4.1.6-.2.6-.4v-1.5c-2.4.5-2.9-1-2.9-1-.4-1-1-1.2-1-1.2-.8-.5.1-.5.1-.5.9.1 1.4.9 1.4.9.8 1.4 2.1 1 2.6.8.1-.6.3-1 .6-1.2-2-.2-4-1-4-4.4 0-1 .3-1.8.9-2.4-.1-.2-.4-1.1.1-2.3 0 0 .8-.2 2.5 1a8.6 8.6 0 0 1 4.5 0c1.7-1.2 2.5-1 2.5-1 .5 1.2.2 2.1.1 2.3.6.6.9 1.4.9 2.4 0 3.4-2.1 4.2-4.1 4.4.3.3.6.8.6 1.6v2.4c0 .2.2.5.6.4A8.5 8.5 0 0 0 20.5 12c0-4.7-3.8-8.5-8.5-8.5z" fill="#f8fafc"/>
</svg>
