<svg xmlns="http://www.w3.org/2000/svg" viewBox="0 0 24 24" fill="none" aria-hidden="true">
  <rect width="24" height="24" rx="5" fill="#0f172a"/>
  <path d="M8.2 13.1a1.5 1.5 0 1 1-1.5-1.5h1.5v1.5zm.4 0A1.5 1.5 0 1 1 11.6 13.1V8.2H8.6v4.9zm0-5.3A1.5 1.5 0 1 1 8.6 6.3v1.5H8.6zm5.3.4A1.5 1.5 0 1 1 12.4 6.7h1.5v1.5zm0 .4A1.5 1.5 0 1 1 15.4 10.5H10.5V8.6h3.4zm5.3 0A1.5 1.5 0 1 1 17.2 10.5v-1.5h1.5zm-5.3 5.3A1.5 1.5 0 1 1 15.4 17.3v-1.5h-1.5zm0-.4A1.5 1.5 0 1 1 12.4 13.5h4.9v1.9h-4.9zm-5.3 0A1.5 1.5 0 1 1 6.8 13.5H8.3v1.5H6.8z" fill="#f8fafc"/>
</svg>
